<svg fill="#000000" xmlns="http://www.w3.org/2000/svg"  viewBox="0 0 50 50" width="150px" height="150px"><path d="M27.003,47c-0.001,0-0.002,0-0.003,0c-1.718,0-3.533-0.174-5.396-0.517c-0.258-0.049-0.502-0.125-0.747-0.203l-0.194-0.062c-0.011-0.001-0.072-0.02-0.132-0.039c-0.35-0.109-0.624-0.199-0.902-0.295c-0.018-0.007-0.125-0.046-0.143-0.053c-0.209-0.076-0.46-0.17-0.702-0.264c-0.012-0.003-0.068-0.025-0.123-0.048c-0.338-0.135-0.601-0.245-0.863-0.359c-0.001-0.001-0.094-0.044-0.096-0.045c-0.287-0.129-0.518-0.235-0.743-0.348c-0.022-0.01-0.181-0.089-0.202-0.101c-0.225-0.108-0.373-0.188-0.513-0.266c-0.096-0.047-0.21-0.104-0.325-0.168c-0.188-0.101-0.391-0.217-0.59-0.334l-0.173-0.097c-0.319-0.192-0.582-0.354-0.845-0.524l-0.717-0.479c-0.02-0.013-0.049-0.035-0.08-0.059c-0.066-0.044-0.129-0.09-0.193-0.137c-0.188-0.135-0.353-0.253-0.512-0.373l-0.958-0.754c-0.186-0.154-0.372-0.313-0.557-0.474c-0.011-0.011-0.149-0.131-0.16-0.142c-0.147-0.124-0.339-0.305-0.53-0.485L10.45,40.23c-0.001-0.001-0.074-0.07-0.075-0.071c-0.155-0.146-0.305-0.301-0.454-0.454l-0.176-0.173c-0.191-0.199-0.37-0.391-0.545-0.584c-0.029-0.028-0.056-0.059-0.08-0.087c-0.186-0.207-0.369-0.417-0.542-0.628l-0.081-0.095c-0.004-0.005-0.07-0.082-0.074-0.088l-0.57-0.72c-0.129-0.164-0.274-0.358-0.418-0.558l-0.062-0.088c-0.006-0.009-0.013-0.017-0.019-0.025h0c-0.174-0.234-0.332-0.473-0.489-0.715c-0.029-0.04-0.075-0.11-0.12-0.183l-0.158-0.251c-0.067-0.104-0.133-0.209-0.195-0.313c-0.019-0.024-0.065-0.102-0.111-0.178l-0.322-0.549c-0.083-0.149-0.131-0.238-0.178-0.334c-0.02-0.025-0.064-0.104-0.097-0.177c-0.021-0.027-0.08-0.142-0.132-0.256l-0.035-0.064c-0.06-0.113-0.119-0.227-0.172-0.345C2.54,27.642,1.75,18.398,5.834,12.45c0.16-0.253,1.588-2.479,3.498-4.194c0.382-0.343,0.961-0.341,1.341,0.004c0.38,0.346,0.437,0.923,0.131,1.335c-3.03,4.095-2.015,15.285,1.875,20.645c0.145,0.2,0.288,0.394,0.436,0.586c0.064,0.08,0.122,0.154,0.173,0.229l0.421,0.515c0.23,0.273,0.402,0.474,0.581,0.672c0.195,0.215,0.365,0.396,0.538,0.573l0.707,0.702c0.243,0.228,0.443,0.414,0.644,0.596c0.027,0.02,0.049,0.037,0.071,0.057c0.178,0.156,0.353,0.308,0.538,0.458l0.217,0.178c0.115,0.095,0.241,0.192,0.366,0.29c0.14,0.105,0.227,0.172,0.31,0.238c0.138,0.101,0.304,0.222,0.472,0.341l0.099,0.071c0.246,0.171,0.414,0.285,0.584,0.395c0.097,0.067,0.148,0.104,0.205,0.139c0.253,0.163,0.503,0.315,0.751,0.465c0.081,0.043,0.169,0.094,0.251,0.15l0.815,0.438c0.18,0.096,0.32,0.171,0.462,0.239c0.015,0.006,0.177,0.085,0.191,0.092c0.205,0.101,0.408,0.195,0.618,0.294l0.136,0.057c0.235,0.104,0.476,0.208,0.719,0.305l0.219,0.085c0.191,0.075,0.41,0.16,0.631,0.236c0,0,0.113,0.041,0.114,0.041c0.248,0.086,0.501,0.171,0.757,0.249l0.372,0.114c0.195,0.06,0.387,0.118,0.582,0.163c7.935,1.824,14.867,0.025,18.546-4.813c0.301-0.395,0.849-0.508,1.282-0.269c0.435,0.241,0.625,0.766,0.449,1.23C45.89,35.473,41.329,46.999,27.003,47z"/><path d="M32.579,33c-1.255,0-2.579-0.116-3.943-0.345c-0.279-0.044-0.53-0.13-0.751-0.205l-0.437-0.145c-0.19-0.063-0.38-0.13-0.567-0.197c-0.009-0.003-0.108-0.04-0.117-0.044l-0.115-0.042c-0.257-0.099-0.468-0.188-0.676-0.278l-0.318-0.139c-0.205-0.095-0.411-0.19-0.614-0.292c-0.015-0.007-0.085-0.04-0.1-0.049l-0.305-0.159c-0.137-0.073-0.194-0.104-0.251-0.139c-0.124-0.061-0.313-0.17-0.494-0.279c-0.278-0.161-0.473-0.282-0.672-0.413l-0.107-0.071l-0.097-0.064c-0.095-0.063-0.188-0.123-0.278-0.187c-0.03-0.018-0.059-0.036-0.087-0.057c-0.267-0.192-0.53-0.388-0.787-0.592l-0.09-0.069c-0.331-0.26-0.582-0.47-0.827-0.688c-0.021-0.018-0.042-0.036-0.061-0.056c0-0.001-0.001-0.001-0.002-0.002c-0.218-0.195-0.429-0.396-0.638-0.599c-0.004-0.004-0.077-0.077-0.081-0.081l-0.098-0.1c-0.203-0.204-0.409-0.415-0.601-0.633c-0.554-0.5-0.989-1.141-1.375-1.708l-0.135-0.197c-0.46-0.662-0.887-1.386-1.265-2.144c-2.418-4.782-2.214-10.448,0.521-14.428c0.01-0.014,0.02-0.027,0.03-0.041c0.065-0.085,1.612-2.099,3.125-3.333c0.374-0.306,0.913-0.3,1.281,0.014c0.368,0.313,0.459,0.844,0.217,1.262c-1.868,3.227-2.486,6.769-1.653,9.476c0.893,2.948,2.802,5.701,5.377,7.758l0.11,0.09c0.281,0.218,0.518,0.399,0.761,0.57c0.106,0.072,0.219,0.146,0.335,0.222c0.009,0.006,0.087,0.059,0.096,0.064l0.093,0.061c0.135,0.091,0.28,0.179,0.424,0.266l0.096,0.059l0.098,0.055c0.174,0.104,0.292,0.174,0.419,0.24l0.569,0.297c0.206,0.1,0.439,0.211,0.674,0.314l0.133,0.057c0.195,0.088,0.354,0.15,0.515,0.214l0.279,0.106c0.195,0.073,0.367,0.133,0.539,0.188c0.083,0.029,0.128,0.046,0.178,0.06c0.3,0.097,0.543,0.169,0.792,0.233c5.387,1.418,10.675-0.308,13.473-4.395c0.277-0.405,0.808-0.55,1.253-0.339c0.444,0.21,0.669,0.712,0.532,1.184c-0.028,0.095-2.898,9.473-13.938,9.715C32.875,32.998,32.728,33,32.579,33z"/><path d="M37.341,21c-0.122,0-0.246-0.002-0.371-0.005c-0.729-0.023-1.5-0.114-2.292-0.271c-0.16-0.032-0.318-0.082-0.475-0.134l-0.112-0.037c-0.02-0.006-0.167-0.053-0.186-0.06c-0.172-0.061-0.272-0.096-0.372-0.135c-3.013-1.13-5.547-3.555-6.762-6.479c-0.524-1.26-0.784-2.568-0.771-3.89c0.018-1.762,0.535-3.456,1.498-4.9c0.01-0.016,0.021-0.031,0.033-0.047c0.187-0.249,1.165-1.513,2.024-1.938c0.401-0.199,0.886-0.107,1.187,0.225s0.343,0.823,0.105,1.202c-1.783,2.84-0.588,7.758,2.458,10.121c0.517,0.4,1.086,0.757,1.692,1.058c0.306,0.147,0.631,0.285,0.96,0.405c0.251,0.093,0.532,0.188,0.789,0.252c3.464,0.861,5.963,0.206,7.427-1.945c0.001-0.001,0.001-0.002,0.002-0.002c0.312-0.456,0.932-0.572,1.389-0.262c0.456,0.311,0.574,0.933,0.264,1.389c-0.002,0.002-0.003,0.005-0.005,0.007c-0.043,0.063-0.096,0.164-0.165,0.291C44.949,17.134,42.825,21,37.341,21z"/></svg>